<svg width="337" height="444" xmlns="http://www.w3.org/2000/svg"><g fill="#FFF" fill-rule="nonzero"><path d="M2.62 321.16h62.83a2.62 2.62 0 0 1 2.62 2.62v7.2a2.62 2.62 0 0 1-2.62 2.62H17.17a1.31 1.31 0 0 0-1.31 1.31v10.14c0 .723.587 1.31 1.31 1.31h17.42a2.62 2.62 0 0 1 2.62 2.62v6.77a2.62 2.62 0 0 1-2.62 2.62H17.17a1.31 1.31 0 0 0-1.31 1.31v10.61a2.62 2.62 0 0 1-2.62 2.62H2.62A2.62 2.62 0 0 1 0 370.29v-46.51a2.62 2.62 0 0 1 2.62-2.62zM83.09 323.78v7.2a2.62 2.62 0 0 0 2.62 2.62h10.13c.723 0 1.31.587 1.31 1.31v20.27c0 4.79-3.07 5.43-8.29 5.43h-14c-4.93 0-6.93-1.57-6.93-5.43v-6.21a2.62 2.62 0 0 0-2.62-2.68h-10.2a2.62 2.62 0 0 0-2.62 2.62v7.85c0 12.07 5.43 16.64 20.29 16.64h18.07c14.36 0 22.15-2.79 22.15-17v-31.24a4 4 0 0 0-4-4H85.71a2.62 2.62 0 0 0-2.62 2.62zM126.42 339.29c0-15.15 8.5-18.72 22.79-18.72h17.24c14.29 0 22.79 3.57 22.79 18.72v15.43c0 15.14-8.5 18.72-22.79 18.72h-17.24c-14.29 0-22.79-3.57-22.79-18.72v-15.43zm16.29 10.5c0 7.5 1.57 10.36 9.07 10.36h12.09c7.5 0 9.07-2.86 9.07-10.36v-5.57c0-6.43-1.57-10.36-9.93-10.36h-10.37c-8.36 0-9.93 3.93-9.93 10.36v5.57zM202.65 323.78a2.62 2.62 0 0 1 2.62-2.62h42.14c12.22 0 15.5 6.07 15.5 15.36v3.29c0 6.93-1.57 11-8.86 12.72v.14c4.71.86 8.64 2.93 8.64 11.43v6.19a2.62 2.62 0 0 1-2.62 2.62h-10.62a2.62 2.62 0 0 1-2.62-2.62v-3.6c0-5.43-1.57-7.22-6.5-7.22h-20.51a1.31 1.31 0 0 0-1.31 1.31v9.51a2.62 2.62 0 0 1-2.62 2.62h-10.58a2.62 2.62 0 0 1-2.62-2.62l-.04-46.51zm15.86 21.51c0 .723.587 1.31 1.31 1.31h21.8c4.29 0 5.86-1.72 5.86-5.43v-1.72c0-4.57-2.29-5.43-7.29-5.43h-20.37a1.31 1.31 0 0 0-1.31 1.27v10zM276.08 323.78a2.62 2.62 0 0 1 2.62-2.62h36.49c15.86 0 21.43 5.22 21.43 18v15.72c0 12.79-5.57 18-21.43 18H278.7a2.62 2.62 0 0 1-2.62-2.62v-46.48zm15.86 34.51c0 .723.587 1.31 1.31 1.31h18.06c6.78 0 9.43-1.93 9.43-9.29v-7c0-7.36-2.64-9.29-9.43-9.29h-18.06a1.31 1.31 0 0 0-1.31 1.31v22.96zM68.43 403.98h11.7a2 2 0 0 1 1.75 1.08l18 35.76a1.23 1.23 0 0 1-1.1 1.78h-8.86a2 2 0 0 1-1.75-1.09l-2.29-4.65a2 2 0 0 0-1.75-1.09H64.6a2 2 0 0 0-1.77 1.13l-2.12 4.57a2 2 0 0 1-1.77 1.13h-8.89a1.23 1.23 0 0 1-1.1-1.78l17.73-35.76a2 2 0 0 1 1.75-1.08zm0 23.47h11.76a.67.67 0 0 0 .6-1l-6-12.3a.67.67 0 0 0-1.2 0l-5.8 12.3a.67.67 0 0 0 .67 1h-.03zM108.2 403.98h7.93a2 2 0 0 1 2 2v20.31c0 4.91 1.76 6.83 6.61 6.83h6.88c4.85 0 6.61-1.92 6.61-6.83v-20.36a2 2 0 0 1 2-2h7.93a2 2 0 0 1 2 2v22.9c0 9.6-5 14.19-15.84 14.19h-12.23c-10.88 0-15.84-4.59-15.84-14.19v-22.9a2 2 0 0 1 1.95-1.95zM160.95 405.93a2 2 0 0 1 2-2h27.24c11.84 0 16 3.89 16 13.44v11.74c0 9.55-4.16 13.44-16 13.44H162.9a2 2 0 0 1-2-2l.05-34.62zm11.84 25.77a1 1 0 0 0 1 1h13.52c5.07 0 7-1.44 7-6.94v-5.23c0-5.49-2-6.94-7-6.94h-13.54a1 1 0 0 0-1 1l.02 17.11zM218.37 403.98h7.94a2 2 0 0 1 2 2v34.71a2 2 0 0 1-2 2h-7.93a2 2 0 0 1-2-2v-34.76a2 2 0 0 1 1.99-1.95zM238.53 417.53c0-11.31 6.35-14 17-14h12.66c10.67 0 17 2.67 17 14v11.52c0 11.31-6.35 14-17 14h-12.65c-10.67 0-17-2.67-17-14l-.01-11.52zm12.16 7.84c0 5.6 1.17 7.73 6.77 7.73h8.85c5.6 0 6.77-2.13 6.77-7.73v-4.16c0-4.8-1.17-7.73-7.41-7.73h-7.53c-6.24 0-7.41 2.93-7.41 7.73l-.04 4.16zM102.91 62.89a1.32 1.32 0 0 0 1.93.07l35.5-35.5a6.25 6.25 0 0 1 8.84 0l18.2 18.2a1.32 1.32 0 0 0 1.86 0l18.2-18.2a6.25 6.25 0 0 1 8.84 0l35.5 35.5a1.32 1.32 0 0 0 1.93-.07l23.6-27.49a1.71 1.71 0 0 0-.2-2.43c-51.503-42.63-126.037-42.63-177.54 0a1.71 1.71 0 0 0-.2 2.43l23.54 27.49zM237.88 77.22l-11.77 13.72-25.38 29.59a1 1 0 0 0 .79 1.71h30a4.26 4.26 0 0 0 3.23-1.49l48-56a3 3 0 0 0 .2-3.71 140.75 140.75 0 0 0-14.09-17.16 1.71 1.71 0 0 0-2.52.08l-28.49 33.22.03.04zM115.75 156.16l-68.63-80a1.71 1.71 0 0 0-2.81.31 138.73 138.73 0 0 0-14.8 79.33 2.35 2.35 0 0 0 2.33 2.08h83.11a1 1 0 0 0 .8-1.72z"/><path d="M210.82 89.58l5.8-6.76 7.2-8.4a1.32 1.32 0 0 0-.07-1.79l-31-31a1.32 1.32 0 0 0-1.86 0l-18.2 18.2a6.25 6.25 0 0 1-8.84 0l-18.2-18.2a1.32 1.32 0 0 0-1.86 0l-31 31a1.32 1.32 0 0 0-.07 1.79l13 15.17a4.26 4.26 0 0 0 3.23 1.49h78.55a4.26 4.26 0 0 0 3.32-1.5zM101.85 120.77a4.26 4.26 0 0 0 3.23 1.49h30a1 1 0 0 0 .79-1.71L70.24 43.99a1.71 1.71 0 0 0-2.52-.08 140.75 140.75 0 0 0-14.09 17.16 3 3 0 0 0 .2 3.71l48.02 55.99z"/><path d="M302.61 170.37h-96.8a6.25 6.25 0 0 1-4.74-10.31l20.24-23.6a1 1 0 0 0-.79-1.71h-34.86a6.25 6.25 0 0 1-4.74-10.31l16.39-19.15a1 1 0 0 0-.79-1.71h-56.47a1 1 0 0 0-.74 1.71l16.43 19.16a6.25 6.25 0 0 1-4.74 10.31h-34.9a1 1 0 0 0-.79 1.71l20.24 23.6a6.25 6.25 0 0 1-4.74 10.31h-96.8a1.71 1.71 0 0 0-1.67 2.09c14.43 61.72 69.9 107.82 135.97 107.82s121.54-46.1 136-107.83a1.71 1.71 0 0 0-1.7-2.09zm-113.68 12h49.38a6.25 6.25 0 0 1 0 12.49h-49.4a6.25 6.25 0 0 1 0-12.49h.02zm4.08 24.49a6.25 6.25 0 0 1 0 12.49h-49.4a6.25 6.25 0 0 1 0-12.49h49.4zm-94.7-24.5h49.4a6.25 6.25 0 1 1 0 12.49h-49.4a6.25 6.25 0 0 1 0-12.49zM66.45 213.1a6.25 6.25 0 0 1 6.25-6.25h28.55a6.25 6.25 0 0 1 0 12.49H72.68a6.25 6.25 0 0 1-6.25-6.24h.02zm31.86 30.74a6.25 6.25 0 0 1 0-12.49h49.4a6.25 6.25 0 0 1 0 12.49h-49.4zm84.27 24.45h-28.54a6.25 6.25 0 1 1 0-12.49h28.55a6.25 6.25 0 0 1 0 12.49h-.01zm55.73-24.45h-49.4a6.25 6.25 0 0 1 0-12.49h49.4a6.25 6.25 0 0 1 0 12.49zm25.62-24.49H235.4a6.25 6.25 0 1 1 0-12.49h28.55a6.25 6.25 0 0 1 0 12.49h-.02z"/><path d="M292.31 76.47a1.71 1.71 0 0 0-2.81-.31l-68.63 80a1 1 0 0 0 .79 1.71h83.11a2.35 2.35 0 0 0 2.33-2.08 138.73 138.73 0 0 0-14.79-79.32z"/></g></svg>